<mxfile host="app.diagrams.net" modified="2021-05-28T07:47:32.262Z" agent="5.0 (Windows NT 10.0; Win64; x64) AppleWebKit/537.36 (KHTML, like Gecko) Chrome/90.0.4430.212 Safari/537.36" etag="YEd_53QKBl8riPwdNpsv" version="14.7.2" type="github">
  <diagram id="4-JRABzrSl69xwfmwqKc" name="Page-1">
    <mxGraphModel dx="2249" dy="762" grid="1" gridSize="10" guides="1" tooltips="1" connect="1" arrows="1" fold="1" page="1" pageScale="1" pageWidth="827" pageHeight="1169" math="0" shadow="0">
      <root>
        <mxCell id="0" />
        <mxCell id="1" parent="0" />
        <mxCell id="iLdQewGLBE6HOLNRCHzL-6" value="ffc-sfi-apply-web" style="rounded=1;whiteSpace=wrap;html=1;verticalAlign=top;" parent="1" vertex="1">
          <mxGeometry x="-130" y="170" width="160" height="520" as="geometry" />
        </mxCell>
        <mxCell id="iLdQewGLBE6HOLNRCHzL-37" style="edgeStyle=orthogonalEdgeStyle;rounded=0;orthogonalLoop=1;jettySize=auto;html=1;strokeWidth=2;" parent="1" source="iLdQewGLBE6HOLNRCHzL-1" target="iLdQewGLBE6HOLNRCHzL-35" edge="1">
          <mxGeometry relative="1" as="geometry" />
        </mxCell>
        <mxCell id="iLdQewGLBE6HOLNRCHzL-1" value="Check eligibility" style="rounded=1;whiteSpace=wrap;html=1;fillColor=#fff2cc;strokeColor=#d6b656;" parent="1" vertex="1">
          <mxGeometry x="-110" y="200" width="120" height="60" as="geometry" />
        </mxCell>
        <mxCell id="iLdQewGLBE6HOLNRCHzL-2" value="Display standards" style="rounded=1;whiteSpace=wrap;html=1;fillColor=#fff2cc;strokeColor=#d6b656;" parent="1" vertex="1">
          <mxGeometry x="-110" y="300" width="120" height="60" as="geometry" />
        </mxCell>
        <mxCell id="iLdQewGLBE6HOLNRCHzL-63" value="Http" style="edgeStyle=orthogonalEdgeStyle;rounded=0;orthogonalLoop=1;jettySize=auto;html=1;entryX=0.5;entryY=1;entryDx=0;entryDy=0;fontSize=9;strokeWidth=2;exitX=0.5;exitY=1;exitDx=0;exitDy=0;" parent="1" source="iLdQewGLBE6HOLNRCHzL-3" target="iLdQewGLBE6HOLNRCHzL-10" edge="1">
          <mxGeometry relative="1" as="geometry" />
        </mxCell>
        <mxCell id="iLdQewGLBE6HOLNRCHzL-3" value="Validate agreement" style="rounded=1;whiteSpace=wrap;html=1;fillColor=#fff2cc;strokeColor=#d6b656;" parent="1" vertex="1">
          <mxGeometry x="-110" y="400" width="120" height="60" as="geometry" />
        </mxCell>
        <mxCell id="iLdQewGLBE6HOLNRCHzL-4" value="Display payment" style="rounded=1;whiteSpace=wrap;html=1;fillColor=#fff2cc;strokeColor=#d6b656;" parent="1" vertex="1">
          <mxGeometry x="-110" y="500" width="120" height="60" as="geometry" />
        </mxCell>
        <mxCell id="iLdQewGLBE6HOLNRCHzL-5" value="Submit agreement" style="rounded=1;whiteSpace=wrap;html=1;fillColor=#fff2cc;strokeColor=#d6b656;" parent="1" vertex="1">
          <mxGeometry x="-110" y="600" width="120" height="60" as="geometry" />
        </mxCell>
        <mxCell id="iLdQewGLBE6HOLNRCHzL-7" value="ffc-sfi-apply-api" style="rounded=1;whiteSpace=wrap;html=1;verticalAlign=top;" parent="1" vertex="1">
          <mxGeometry x="360" y="170" width="160" height="520" as="geometry" />
        </mxCell>
        <mxCell id="iLdQewGLBE6HOLNRCHzL-8" value="Eligible to apply" style="rounded=1;whiteSpace=wrap;html=1;fillColor=#fff2cc;strokeColor=#d6b656;" parent="1" vertex="1">
          <mxGeometry x="380" y="200" width="120" height="60" as="geometry" />
        </mxCell>
        <mxCell id="iLdQewGLBE6HOLNRCHzL-9" value="List available standards" style="rounded=1;whiteSpace=wrap;html=1;fillColor=#fff2cc;strokeColor=#d6b656;" parent="1" vertex="1">
          <mxGeometry x="380" y="300" width="120" height="60" as="geometry" />
        </mxCell>
        <mxCell id="iLdQewGLBE6HOLNRCHzL-21" style="edgeStyle=orthogonalEdgeStyle;rounded=0;orthogonalLoop=1;jettySize=auto;html=1;entryX=0;entryY=0.5;entryDx=0;entryDy=0;" parent="1" source="iLdQewGLBE6HOLNRCHzL-10" target="iLdQewGLBE6HOLNRCHzL-16" edge="1">
          <mxGeometry relative="1" as="geometry" />
        </mxCell>
        <mxCell id="iLdQewGLBE6HOLNRCHzL-10" value="Validate parcel and standard combination" style="rounded=1;whiteSpace=wrap;html=1;fillColor=#fff2cc;strokeColor=#d6b656;" parent="1" vertex="1">
          <mxGeometry x="380" y="400" width="120" height="60" as="geometry" />
        </mxCell>
        <mxCell id="iLdQewGLBE6HOLNRCHzL-11" value="Calculate payment" style="rounded=1;whiteSpace=wrap;html=1;fillColor=#fff2cc;strokeColor=#d6b656;" parent="1" vertex="1">
          <mxGeometry x="380" y="500" width="120" height="60" as="geometry" />
        </mxCell>
        <mxCell id="iLdQewGLBE6HOLNRCHzL-12" value="Submit" style="rounded=1;whiteSpace=wrap;html=1;fillColor=#fff2cc;strokeColor=#d6b656;" parent="1" vertex="1">
          <mxGeometry x="380" y="600" width="120" height="60" as="geometry" />
        </mxCell>
        <mxCell id="iLdQewGLBE6HOLNRCHzL-13" value="ffc-sfi-siti-agri-mock" style="rounded=1;whiteSpace=wrap;html=1;verticalAlign=top;" parent="1" vertex="1">
          <mxGeometry x="640" y="170" width="160" height="520" as="geometry" />
        </mxCell>
        <mxCell id="iLdQewGLBE6HOLNRCHzL-14" value="Eligible to apply" style="rounded=1;whiteSpace=wrap;html=1;fillColor=#fff2cc;strokeColor=#d6b656;" parent="1" vertex="1">
          <mxGeometry x="660" y="200" width="120" height="60" as="geometry" />
        </mxCell>
        <mxCell id="iLdQewGLBE6HOLNRCHzL-15" value="List available standards" style="rounded=1;whiteSpace=wrap;html=1;fillColor=#fff2cc;strokeColor=#d6b656;" parent="1" vertex="1">
          <mxGeometry x="660" y="300" width="120" height="60" as="geometry" />
        </mxCell>
        <mxCell id="iLdQewGLBE6HOLNRCHzL-16" value="Validate parcel and standard combination" style="rounded=1;whiteSpace=wrap;html=1;fillColor=#fff2cc;strokeColor=#d6b656;" parent="1" vertex="1">
          <mxGeometry x="660" y="400" width="120" height="60" as="geometry" />
        </mxCell>
        <mxCell id="iLdQewGLBE6HOLNRCHzL-17" value="Calculate payment" style="rounded=1;whiteSpace=wrap;html=1;fillColor=#fff2cc;strokeColor=#d6b656;" parent="1" vertex="1">
          <mxGeometry x="660" y="500" width="120" height="60" as="geometry" />
        </mxCell>
        <mxCell id="iLdQewGLBE6HOLNRCHzL-18" value="Submit" style="rounded=1;whiteSpace=wrap;html=1;fillColor=#fff2cc;strokeColor=#d6b656;" parent="1" vertex="1">
          <mxGeometry x="660" y="600" width="120" height="60" as="geometry" />
        </mxCell>
        <mxCell id="iLdQewGLBE6HOLNRCHzL-19" style="edgeStyle=orthogonalEdgeStyle;rounded=0;orthogonalLoop=1;jettySize=auto;html=1;entryX=0;entryY=0.5;entryDx=0;entryDy=0;strokeWidth=2;" parent="1" source="iLdQewGLBE6HOLNRCHzL-8" target="iLdQewGLBE6HOLNRCHzL-14" edge="1">
          <mxGeometry relative="1" as="geometry" />
        </mxCell>
        <mxCell id="iLdQewGLBE6HOLNRCHzL-30" value="Http" style="edgeLabel;html=1;align=center;verticalAlign=middle;resizable=0;points=[];" parent="iLdQewGLBE6HOLNRCHzL-19" vertex="1" connectable="0">
          <mxGeometry x="0.225" y="4" relative="1" as="geometry">
            <mxPoint x="-19" as="offset" />
          </mxGeometry>
        </mxCell>
        <mxCell id="iLdQewGLBE6HOLNRCHzL-20" style="edgeStyle=orthogonalEdgeStyle;rounded=0;orthogonalLoop=1;jettySize=auto;html=1;" parent="1" source="iLdQewGLBE6HOLNRCHzL-9" target="iLdQewGLBE6HOLNRCHzL-15" edge="1">
          <mxGeometry relative="1" as="geometry" />
        </mxCell>
        <mxCell id="iLdQewGLBE6HOLNRCHzL-24" style="edgeStyle=orthogonalEdgeStyle;rounded=0;orthogonalLoop=1;jettySize=auto;html=1;" parent="1" edge="1">
          <mxGeometry relative="1" as="geometry">
            <mxPoint x="500" y="330" as="sourcePoint" />
            <mxPoint x="660" y="330" as="targetPoint" />
          </mxGeometry>
        </mxCell>
        <mxCell id="iLdQewGLBE6HOLNRCHzL-25" style="edgeStyle=orthogonalEdgeStyle;rounded=0;orthogonalLoop=1;jettySize=auto;html=1;entryX=0;entryY=0.5;entryDx=0;entryDy=0;" parent="1" edge="1">
          <mxGeometry relative="1" as="geometry">
            <mxPoint x="500" y="430" as="sourcePoint" />
            <mxPoint x="660" y="430" as="targetPoint" />
          </mxGeometry>
        </mxCell>
        <mxCell id="iLdQewGLBE6HOLNRCHzL-26" style="edgeStyle=orthogonalEdgeStyle;rounded=0;orthogonalLoop=1;jettySize=auto;html=1;" parent="1" edge="1">
          <mxGeometry relative="1" as="geometry">
            <mxPoint x="500" y="330" as="sourcePoint" />
            <mxPoint x="660" y="330" as="targetPoint" />
          </mxGeometry>
        </mxCell>
        <mxCell id="iLdQewGLBE6HOLNRCHzL-27" style="edgeStyle=orthogonalEdgeStyle;rounded=0;orthogonalLoop=1;jettySize=auto;html=1;entryX=0;entryY=0.5;entryDx=0;entryDy=0;" parent="1" edge="1">
          <mxGeometry relative="1" as="geometry">
            <mxPoint x="500" y="430" as="sourcePoint" />
            <mxPoint x="660" y="430" as="targetPoint" />
          </mxGeometry>
        </mxCell>
        <mxCell id="iLdQewGLBE6HOLNRCHzL-22" style="edgeStyle=orthogonalEdgeStyle;rounded=0;orthogonalLoop=1;jettySize=auto;html=1;entryX=0;entryY=0.5;entryDx=0;entryDy=0;strokeWidth=2;" parent="1" source="iLdQewGLBE6HOLNRCHzL-11" target="iLdQewGLBE6HOLNRCHzL-17" edge="1">
          <mxGeometry relative="1" as="geometry" />
        </mxCell>
        <mxCell id="iLdQewGLBE6HOLNRCHzL-33" value="Http" style="edgeLabel;html=1;align=center;verticalAlign=middle;resizable=0;points=[];" parent="iLdQewGLBE6HOLNRCHzL-22" vertex="1" connectable="0">
          <mxGeometry x="0.3" y="3" relative="1" as="geometry">
            <mxPoint x="-24" as="offset" />
          </mxGeometry>
        </mxCell>
        <mxCell id="iLdQewGLBE6HOLNRCHzL-23" style="edgeStyle=orthogonalEdgeStyle;rounded=0;orthogonalLoop=1;jettySize=auto;html=1;entryX=0;entryY=0.5;entryDx=0;entryDy=0;strokeWidth=2;" parent="1" source="iLdQewGLBE6HOLNRCHzL-12" target="iLdQewGLBE6HOLNRCHzL-18" edge="1">
          <mxGeometry relative="1" as="geometry" />
        </mxCell>
        <mxCell id="iLdQewGLBE6HOLNRCHzL-34" value="Http" style="edgeLabel;html=1;align=center;verticalAlign=middle;resizable=0;points=[];" parent="iLdQewGLBE6HOLNRCHzL-23" vertex="1" connectable="0">
          <mxGeometry x="0.3125" y="2" relative="1" as="geometry">
            <mxPoint x="-24" as="offset" />
          </mxGeometry>
        </mxCell>
        <mxCell id="iLdQewGLBE6HOLNRCHzL-28" style="edgeStyle=orthogonalEdgeStyle;rounded=0;orthogonalLoop=1;jettySize=auto;html=1;strokeWidth=2;" parent="1" edge="1">
          <mxGeometry relative="1" as="geometry">
            <mxPoint x="500" y="330" as="sourcePoint" />
            <mxPoint x="660" y="330" as="targetPoint" />
          </mxGeometry>
        </mxCell>
        <mxCell id="iLdQewGLBE6HOLNRCHzL-31" value="Http" style="edgeLabel;html=1;align=center;verticalAlign=middle;resizable=0;points=[];" parent="iLdQewGLBE6HOLNRCHzL-28" vertex="1" connectable="0">
          <mxGeometry x="0.25" y="3" relative="1" as="geometry">
            <mxPoint x="-19" as="offset" />
          </mxGeometry>
        </mxCell>
        <mxCell id="iLdQewGLBE6HOLNRCHzL-29" style="edgeStyle=orthogonalEdgeStyle;rounded=0;orthogonalLoop=1;jettySize=auto;html=1;entryX=0;entryY=0.5;entryDx=0;entryDy=0;strokeWidth=2;" parent="1" edge="1">
          <mxGeometry relative="1" as="geometry">
            <mxPoint x="500" y="430" as="sourcePoint" />
            <mxPoint x="660" y="430" as="targetPoint" />
          </mxGeometry>
        </mxCell>
        <mxCell id="iLdQewGLBE6HOLNRCHzL-32" value="Http" style="edgeLabel;html=1;align=center;verticalAlign=middle;resizable=0;points=[];" parent="iLdQewGLBE6HOLNRCHzL-29" vertex="1" connectable="0">
          <mxGeometry x="0.175" y="-2" relative="1" as="geometry">
            <mxPoint x="-16" y="-1" as="offset" />
          </mxGeometry>
        </mxCell>
        <mxCell id="iLdQewGLBE6HOLNRCHzL-38" style="edgeStyle=orthogonalEdgeStyle;rounded=0;orthogonalLoop=1;jettySize=auto;html=1;entryX=0;entryY=0.5;entryDx=0;entryDy=0;strokeWidth=2;" parent="1" source="iLdQewGLBE6HOLNRCHzL-35" target="iLdQewGLBE6HOLNRCHzL-36" edge="1">
          <mxGeometry relative="1" as="geometry" />
        </mxCell>
        <mxCell id="iLdQewGLBE6HOLNRCHzL-35" value="&lt;font style=&quot;font-size: 10px&quot;&gt;ffc-sfi-eligibility-check&lt;br&gt;(Topic)&lt;/font&gt;" style="rounded=1;whiteSpace=wrap;html=1;verticalAlign=top;fillColor=#dae8fc;strokeColor=#6c8ebf;" parent="1" vertex="1">
          <mxGeometry x="60" y="210" width="120" height="40" as="geometry" />
        </mxCell>
        <mxCell id="iLdQewGLBE6HOLNRCHzL-39" style="edgeStyle=orthogonalEdgeStyle;rounded=0;orthogonalLoop=1;jettySize=auto;html=1;entryX=0;entryY=0.5;entryDx=0;entryDy=0;strokeWidth=2;" parent="1" source="iLdQewGLBE6HOLNRCHzL-36" target="iLdQewGLBE6HOLNRCHzL-8" edge="1">
          <mxGeometry relative="1" as="geometry" />
        </mxCell>
        <mxCell id="iLdQewGLBE6HOLNRCHzL-36" value="&lt;font style=&quot;font-size: 10px&quot;&gt;ffc-sfi-eligibility-check-api&lt;br&gt;(Subscription)&lt;/font&gt;" style="rounded=1;whiteSpace=wrap;html=1;verticalAlign=top;fillColor=#dae8fc;strokeColor=#6c8ebf;" parent="1" vertex="1">
          <mxGeometry x="220" y="210" width="120" height="40" as="geometry" />
        </mxCell>
        <mxCell id="iLdQewGLBE6HOLNRCHzL-40" style="edgeStyle=orthogonalEdgeStyle;rounded=0;orthogonalLoop=1;jettySize=auto;html=1;strokeWidth=2;" parent="1" target="iLdQewGLBE6HOLNRCHzL-42" edge="1">
          <mxGeometry relative="1" as="geometry">
            <mxPoint x="10" y="330" as="sourcePoint" />
          </mxGeometry>
        </mxCell>
        <mxCell id="iLdQewGLBE6HOLNRCHzL-41" style="edgeStyle=orthogonalEdgeStyle;rounded=0;orthogonalLoop=1;jettySize=auto;html=1;entryX=0;entryY=0.5;entryDx=0;entryDy=0;strokeWidth=2;" parent="1" source="iLdQewGLBE6HOLNRCHzL-42" target="iLdQewGLBE6HOLNRCHzL-44" edge="1">
          <mxGeometry relative="1" as="geometry" />
        </mxCell>
        <mxCell id="iLdQewGLBE6HOLNRCHzL-42" value="ffc-sfi-standards-request&lt;br style=&quot;font-size: 10px&quot;&gt;(Topic)" style="rounded=1;whiteSpace=wrap;html=1;verticalAlign=top;fontSize=10;fillColor=#dae8fc;strokeColor=#6c8ebf;" parent="1" vertex="1">
          <mxGeometry x="60" y="310" width="120" height="40" as="geometry" />
        </mxCell>
        <mxCell id="iLdQewGLBE6HOLNRCHzL-43" style="edgeStyle=orthogonalEdgeStyle;rounded=0;orthogonalLoop=1;jettySize=auto;html=1;entryX=0;entryY=0.5;entryDx=0;entryDy=0;strokeWidth=2;" parent="1" source="iLdQewGLBE6HOLNRCHzL-44" edge="1">
          <mxGeometry relative="1" as="geometry">
            <mxPoint x="380" y="330" as="targetPoint" />
          </mxGeometry>
        </mxCell>
        <mxCell id="iLdQewGLBE6HOLNRCHzL-44" value="ffc-sfi-standards-request-api&lt;br style=&quot;font-size: 9px;&quot;&gt;(Subscription)" style="rounded=1;whiteSpace=wrap;html=1;verticalAlign=top;fontSize=9;fillColor=#dae8fc;strokeColor=#6c8ebf;" parent="1" vertex="1">
          <mxGeometry x="220" y="310" width="120" height="40" as="geometry" />
        </mxCell>
        <mxCell id="iLdQewGLBE6HOLNRCHzL-45" style="edgeStyle=orthogonalEdgeStyle;rounded=0;orthogonalLoop=1;jettySize=auto;html=1;strokeWidth=2;" parent="1" target="iLdQewGLBE6HOLNRCHzL-47" edge="1">
          <mxGeometry relative="1" as="geometry">
            <mxPoint x="10" y="430" as="sourcePoint" />
          </mxGeometry>
        </mxCell>
        <mxCell id="iLdQewGLBE6HOLNRCHzL-46" style="edgeStyle=orthogonalEdgeStyle;rounded=0;orthogonalLoop=1;jettySize=auto;html=1;entryX=0;entryY=0.5;entryDx=0;entryDy=0;strokeWidth=2;" parent="1" source="iLdQewGLBE6HOLNRCHzL-47" target="iLdQewGLBE6HOLNRCHzL-49" edge="1">
          <mxGeometry relative="1" as="geometry" />
        </mxCell>
        <mxCell id="iLdQewGLBE6HOLNRCHzL-47" value="ffc-sfi-agreement-validate&lt;br style=&quot;font-size: 10px&quot;&gt;(Topic)" style="rounded=1;whiteSpace=wrap;html=1;verticalAlign=top;fontSize=10;fillColor=#dae8fc;strokeColor=#6c8ebf;" parent="1" vertex="1">
          <mxGeometry x="60" y="410" width="120" height="40" as="geometry" />
        </mxCell>
        <mxCell id="iLdQewGLBE6HOLNRCHzL-48" style="edgeStyle=orthogonalEdgeStyle;rounded=0;orthogonalLoop=1;jettySize=auto;html=1;entryX=0;entryY=0.5;entryDx=0;entryDy=0;strokeWidth=2;" parent="1" source="iLdQewGLBE6HOLNRCHzL-49" edge="1">
          <mxGeometry relative="1" as="geometry">
            <mxPoint x="380" y="430" as="targetPoint" />
          </mxGeometry>
        </mxCell>
        <mxCell id="iLdQewGLBE6HOLNRCHzL-49" value="ffc-sfi-agreement-validate-api&lt;br style=&quot;font-size: 9px&quot;&gt;(Subscription)" style="rounded=1;whiteSpace=wrap;html=1;verticalAlign=top;fontSize=9;fillColor=#dae8fc;strokeColor=#6c8ebf;" parent="1" vertex="1">
          <mxGeometry x="220" y="410" width="120" height="40" as="geometry" />
        </mxCell>
        <mxCell id="iLdQewGLBE6HOLNRCHzL-50" style="edgeStyle=orthogonalEdgeStyle;rounded=0;orthogonalLoop=1;jettySize=auto;html=1;strokeWidth=2;" parent="1" target="iLdQewGLBE6HOLNRCHzL-52" edge="1">
          <mxGeometry relative="1" as="geometry">
            <mxPoint x="10" y="530" as="sourcePoint" />
          </mxGeometry>
        </mxCell>
        <mxCell id="iLdQewGLBE6HOLNRCHzL-51" style="edgeStyle=orthogonalEdgeStyle;rounded=0;orthogonalLoop=1;jettySize=auto;html=1;entryX=0;entryY=0.5;entryDx=0;entryDy=0;strokeWidth=2;" parent="1" source="iLdQewGLBE6HOLNRCHzL-52" target="iLdQewGLBE6HOLNRCHzL-54" edge="1">
          <mxGeometry relative="1" as="geometry" />
        </mxCell>
        <mxCell id="iLdQewGLBE6HOLNRCHzL-52" value="ffc-sfi-agreement-calculate&lt;br style=&quot;font-size: 10px&quot;&gt;(Topic)" style="rounded=1;whiteSpace=wrap;html=1;verticalAlign=top;fontSize=10;fillColor=#dae8fc;strokeColor=#6c8ebf;" parent="1" vertex="1">
          <mxGeometry x="60" y="510" width="120" height="40" as="geometry" />
        </mxCell>
        <mxCell id="iLdQewGLBE6HOLNRCHzL-53" style="edgeStyle=orthogonalEdgeStyle;rounded=0;orthogonalLoop=1;jettySize=auto;html=1;entryX=0;entryY=0.5;entryDx=0;entryDy=0;strokeWidth=2;" parent="1" source="iLdQewGLBE6HOLNRCHzL-54" edge="1">
          <mxGeometry relative="1" as="geometry">
            <mxPoint x="380" y="530" as="targetPoint" />
          </mxGeometry>
        </mxCell>
        <mxCell id="iLdQewGLBE6HOLNRCHzL-54" value="ffc-sfi-agreement-calculate-api&lt;br style=&quot;font-size: 9px&quot;&gt;(Subscription)" style="rounded=1;whiteSpace=wrap;html=1;verticalAlign=top;fontSize=9;fillColor=#dae8fc;strokeColor=#6c8ebf;" parent="1" vertex="1">
          <mxGeometry x="220" y="510" width="120" height="40" as="geometry" />
        </mxCell>
        <mxCell id="iLdQewGLBE6HOLNRCHzL-55" style="edgeStyle=orthogonalEdgeStyle;rounded=0;orthogonalLoop=1;jettySize=auto;html=1;strokeWidth=2;" parent="1" target="iLdQewGLBE6HOLNRCHzL-57" edge="1">
          <mxGeometry relative="1" as="geometry">
            <mxPoint x="10" y="630" as="sourcePoint" />
          </mxGeometry>
        </mxCell>
        <mxCell id="iLdQewGLBE6HOLNRCHzL-56" style="edgeStyle=orthogonalEdgeStyle;rounded=0;orthogonalLoop=1;jettySize=auto;html=1;entryX=0;entryY=0.5;entryDx=0;entryDy=0;strokeWidth=2;" parent="1" source="iLdQewGLBE6HOLNRCHzL-57" target="iLdQewGLBE6HOLNRCHzL-59" edge="1">
          <mxGeometry relative="1" as="geometry" />
        </mxCell>
        <mxCell id="iLdQewGLBE6HOLNRCHzL-57" value="ffc-sfi-agreement-submit&lt;br style=&quot;font-size: 10px&quot;&gt;(Topic)" style="rounded=1;whiteSpace=wrap;html=1;verticalAlign=top;fontSize=10;fillColor=#dae8fc;strokeColor=#6c8ebf;" parent="1" vertex="1">
          <mxGeometry x="60" y="610" width="120" height="40" as="geometry" />
        </mxCell>
        <mxCell id="iLdQewGLBE6HOLNRCHzL-58" style="edgeStyle=orthogonalEdgeStyle;rounded=0;orthogonalLoop=1;jettySize=auto;html=1;entryX=0;entryY=0.5;entryDx=0;entryDy=0;strokeWidth=2;" parent="1" source="iLdQewGLBE6HOLNRCHzL-59" edge="1">
          <mxGeometry relative="1" as="geometry">
            <mxPoint x="380" y="630" as="targetPoint" />
          </mxGeometry>
        </mxCell>
        <mxCell id="iLdQewGLBE6HOLNRCHzL-59" value="ffc-sfi-agreement-submit-api&lt;br style=&quot;font-size: 9px;&quot;&gt;(Subscription)" style="rounded=1;whiteSpace=wrap;html=1;verticalAlign=top;fontSize=9;fillColor=#dae8fc;strokeColor=#6c8ebf;" parent="1" vertex="1">
          <mxGeometry x="220" y="610" width="120" height="40" as="geometry" />
        </mxCell>
        <mxCell id="iLdQewGLBE6HOLNRCHzL-61" value="Http" style="edgeStyle=orthogonalEdgeStyle;rounded=0;orthogonalLoop=1;jettySize=auto;html=1;entryX=0.5;entryY=1;entryDx=0;entryDy=0;fontSize=9;strokeWidth=2;exitX=0.5;exitY=1;exitDx=0;exitDy=0;" parent="1" source="iLdQewGLBE6HOLNRCHzL-1" target="iLdQewGLBE6HOLNRCHzL-8" edge="1">
          <mxGeometry relative="1" as="geometry" />
        </mxCell>
        <mxCell id="iLdQewGLBE6HOLNRCHzL-62" value="Http" style="edgeStyle=orthogonalEdgeStyle;rounded=0;orthogonalLoop=1;jettySize=auto;html=1;entryX=0.5;entryY=1;entryDx=0;entryDy=0;fontSize=9;strokeWidth=2;exitX=0.5;exitY=1;exitDx=0;exitDy=0;" parent="1" source="iLdQewGLBE6HOLNRCHzL-2" target="iLdQewGLBE6HOLNRCHzL-9" edge="1">
          <mxGeometry relative="1" as="geometry" />
        </mxCell>
        <mxCell id="iLdQewGLBE6HOLNRCHzL-65" value="Http" style="edgeStyle=orthogonalEdgeStyle;rounded=0;orthogonalLoop=1;jettySize=auto;html=1;entryX=0.5;entryY=1;entryDx=0;entryDy=0;fontSize=9;strokeWidth=2;exitX=0.5;exitY=1;exitDx=0;exitDy=0;" parent="1" source="iLdQewGLBE6HOLNRCHzL-5" target="iLdQewGLBE6HOLNRCHzL-12" edge="1">
          <mxGeometry relative="1" as="geometry" />
        </mxCell>
        <mxCell id="iLdQewGLBE6HOLNRCHzL-64" value="Http" style="edgeStyle=orthogonalEdgeStyle;rounded=0;orthogonalLoop=1;jettySize=auto;html=1;entryX=0.5;entryY=1;entryDx=0;entryDy=0;fontSize=9;strokeWidth=2;exitX=0.5;exitY=1;exitDx=0;exitDy=0;" parent="1" source="iLdQewGLBE6HOLNRCHzL-4" target="iLdQewGLBE6HOLNRCHzL-11" edge="1">
          <mxGeometry relative="1" as="geometry" />
        </mxCell>
        <mxCell id="92nNJz3FCfaOk2cZFQuL-1" value="Apply for SFI" style="rounded=1;whiteSpace=wrap;html=1;verticalAlign=top;" vertex="1" parent="1">
          <mxGeometry x="-110" y="880" width="160" height="520" as="geometry" />
        </mxCell>
        <mxCell id="92nNJz3FCfaOk2cZFQuL-22" style="edgeStyle=orthogonalEdgeStyle;rounded=0;orthogonalLoop=1;jettySize=auto;html=1;entryX=0;entryY=0.5;entryDx=0;entryDy=0;strokeWidth=2;" edge="1" parent="1" source="92nNJz3FCfaOk2cZFQuL-2" target="92nNJz3FCfaOk2cZFQuL-8">
          <mxGeometry relative="1" as="geometry" />
        </mxCell>
        <mxCell id="92nNJz3FCfaOk2cZFQuL-2" value="Check eligibility" style="rounded=1;whiteSpace=wrap;html=1;fillColor=#fff2cc;strokeColor=#d6b656;" vertex="1" parent="1">
          <mxGeometry x="-90" y="910" width="120" height="60" as="geometry" />
        </mxCell>
        <mxCell id="92nNJz3FCfaOk2cZFQuL-23" style="edgeStyle=orthogonalEdgeStyle;rounded=0;orthogonalLoop=1;jettySize=auto;html=1;entryX=0;entryY=0.5;entryDx=0;entryDy=0;strokeWidth=2;" edge="1" parent="1" source="92nNJz3FCfaOk2cZFQuL-3" target="92nNJz3FCfaOk2cZFQuL-11">
          <mxGeometry relative="1" as="geometry" />
        </mxCell>
        <mxCell id="92nNJz3FCfaOk2cZFQuL-3" value="Display standards" style="rounded=1;whiteSpace=wrap;html=1;fillColor=#fff2cc;strokeColor=#d6b656;" vertex="1" parent="1">
          <mxGeometry x="-90" y="1010" width="120" height="60" as="geometry" />
        </mxCell>
        <mxCell id="92nNJz3FCfaOk2cZFQuL-24" style="edgeStyle=orthogonalEdgeStyle;rounded=0;orthogonalLoop=1;jettySize=auto;html=1;entryX=0;entryY=0.5;entryDx=0;entryDy=0;strokeWidth=2;" edge="1" parent="1" source="92nNJz3FCfaOk2cZFQuL-4" target="92nNJz3FCfaOk2cZFQuL-14">
          <mxGeometry relative="1" as="geometry" />
        </mxCell>
        <mxCell id="92nNJz3FCfaOk2cZFQuL-4" value="Validate agreement" style="rounded=1;whiteSpace=wrap;html=1;fillColor=#fff2cc;strokeColor=#d6b656;" vertex="1" parent="1">
          <mxGeometry x="-90" y="1110" width="120" height="60" as="geometry" />
        </mxCell>
        <mxCell id="92nNJz3FCfaOk2cZFQuL-25" style="edgeStyle=orthogonalEdgeStyle;rounded=0;orthogonalLoop=1;jettySize=auto;html=1;entryX=0;entryY=0.5;entryDx=0;entryDy=0;strokeWidth=2;" edge="1" parent="1" source="92nNJz3FCfaOk2cZFQuL-5" target="92nNJz3FCfaOk2cZFQuL-17">
          <mxGeometry relative="1" as="geometry" />
        </mxCell>
        <mxCell id="92nNJz3FCfaOk2cZFQuL-5" value="Display payment" style="rounded=1;whiteSpace=wrap;html=1;fillColor=#fff2cc;strokeColor=#d6b656;" vertex="1" parent="1">
          <mxGeometry x="-90" y="1210" width="120" height="60" as="geometry" />
        </mxCell>
        <mxCell id="92nNJz3FCfaOk2cZFQuL-26" style="edgeStyle=orthogonalEdgeStyle;rounded=0;orthogonalLoop=1;jettySize=auto;html=1;entryX=0;entryY=0.5;entryDx=0;entryDy=0;strokeWidth=2;" edge="1" parent="1" source="92nNJz3FCfaOk2cZFQuL-6" target="92nNJz3FCfaOk2cZFQuL-20">
          <mxGeometry relative="1" as="geometry" />
        </mxCell>
        <mxCell id="92nNJz3FCfaOk2cZFQuL-6" value="Submit agreement" style="rounded=1;whiteSpace=wrap;html=1;fillColor=#fff2cc;strokeColor=#d6b656;" vertex="1" parent="1">
          <mxGeometry x="-90" y="1310" width="120" height="60" as="geometry" />
        </mxCell>
        <mxCell id="92nNJz3FCfaOk2cZFQuL-7" style="edgeStyle=orthogonalEdgeStyle;rounded=0;orthogonalLoop=1;jettySize=auto;html=1;entryX=0;entryY=0.5;entryDx=0;entryDy=0;strokeWidth=2;" edge="1" parent="1" source="92nNJz3FCfaOk2cZFQuL-8" target="92nNJz3FCfaOk2cZFQuL-9">
          <mxGeometry relative="1" as="geometry" />
        </mxCell>
        <mxCell id="92nNJz3FCfaOk2cZFQuL-36" style="edgeStyle=orthogonalEdgeStyle;rounded=0;orthogonalLoop=1;jettySize=auto;html=1;entryX=0;entryY=0.5;entryDx=0;entryDy=0;fontSize=12;strokeWidth=2;" edge="1" parent="1" source="92nNJz3FCfaOk2cZFQuL-8" target="92nNJz3FCfaOk2cZFQuL-34">
          <mxGeometry relative="1" as="geometry" />
        </mxCell>
        <mxCell id="92nNJz3FCfaOk2cZFQuL-8" value="&lt;span style=&quot;font-size: 12px;&quot;&gt;Eligibility check topic&lt;/span&gt;" style="rounded=1;whiteSpace=wrap;html=1;verticalAlign=top;fillColor=#dae8fc;strokeColor=#6c8ebf;fontSize=12;" vertex="1" parent="1">
          <mxGeometry x="100" y="920" width="120" height="40" as="geometry" />
        </mxCell>
        <mxCell id="92nNJz3FCfaOk2cZFQuL-46" style="edgeStyle=orthogonalEdgeStyle;rounded=0;orthogonalLoop=1;jettySize=auto;html=1;entryX=0;entryY=0.5;entryDx=0;entryDy=0;fontSize=12;strokeWidth=2;fillColor=#e1d5e7;strokeColor=#9673a6;" edge="1" parent="1" source="92nNJz3FCfaOk2cZFQuL-9" target="92nNJz3FCfaOk2cZFQuL-45">
          <mxGeometry relative="1" as="geometry" />
        </mxCell>
        <mxCell id="92nNJz3FCfaOk2cZFQuL-9" value="&lt;span style=&quot;font-size: 12px;&quot;&gt;Decoupling layer subscription&lt;/span&gt;" style="rounded=1;whiteSpace=wrap;html=1;verticalAlign=top;fillColor=#e1d5e7;strokeColor=#9673a6;fontSize=12;" vertex="1" parent="1">
          <mxGeometry x="260" y="890" width="120" height="40" as="geometry" />
        </mxCell>
        <mxCell id="92nNJz3FCfaOk2cZFQuL-10" style="edgeStyle=orthogonalEdgeStyle;rounded=0;orthogonalLoop=1;jettySize=auto;html=1;entryX=0;entryY=0.5;entryDx=0;entryDy=0;strokeWidth=2;" edge="1" parent="1" source="92nNJz3FCfaOk2cZFQuL-11" target="92nNJz3FCfaOk2cZFQuL-30">
          <mxGeometry relative="1" as="geometry">
            <mxPoint x="260" y="1040" as="targetPoint" />
          </mxGeometry>
        </mxCell>
        <mxCell id="92nNJz3FCfaOk2cZFQuL-38" style="edgeStyle=orthogonalEdgeStyle;rounded=0;orthogonalLoop=1;jettySize=auto;html=1;entryX=0;entryY=0.5;entryDx=0;entryDy=0;fontSize=12;strokeWidth=2;" edge="1" parent="1" source="92nNJz3FCfaOk2cZFQuL-11" target="92nNJz3FCfaOk2cZFQuL-37">
          <mxGeometry relative="1" as="geometry" />
        </mxCell>
        <mxCell id="92nNJz3FCfaOk2cZFQuL-11" value="Standards request topic" style="rounded=1;whiteSpace=wrap;html=1;verticalAlign=top;fontSize=12;fillColor=#dae8fc;strokeColor=#6c8ebf;" vertex="1" parent="1">
          <mxGeometry x="100" y="1020" width="120" height="40" as="geometry" />
        </mxCell>
        <mxCell id="92nNJz3FCfaOk2cZFQuL-13" style="edgeStyle=orthogonalEdgeStyle;rounded=0;orthogonalLoop=1;jettySize=auto;html=1;entryX=0;entryY=0.5;entryDx=0;entryDy=0;strokeWidth=2;" edge="1" parent="1" source="92nNJz3FCfaOk2cZFQuL-14" target="92nNJz3FCfaOk2cZFQuL-31">
          <mxGeometry relative="1" as="geometry">
            <mxPoint x="260" y="1140" as="targetPoint" />
          </mxGeometry>
        </mxCell>
        <mxCell id="92nNJz3FCfaOk2cZFQuL-42" style="edgeStyle=orthogonalEdgeStyle;rounded=0;orthogonalLoop=1;jettySize=auto;html=1;entryX=0;entryY=0.5;entryDx=0;entryDy=0;fontSize=12;strokeWidth=2;" edge="1" parent="1" source="92nNJz3FCfaOk2cZFQuL-14" target="92nNJz3FCfaOk2cZFQuL-39">
          <mxGeometry relative="1" as="geometry" />
        </mxCell>
        <mxCell id="92nNJz3FCfaOk2cZFQuL-14" value="Agreement validate topic" style="rounded=1;whiteSpace=wrap;html=1;verticalAlign=top;fontSize=12;fillColor=#dae8fc;strokeColor=#6c8ebf;" vertex="1" parent="1">
          <mxGeometry x="100" y="1120" width="120" height="40" as="geometry" />
        </mxCell>
        <mxCell id="92nNJz3FCfaOk2cZFQuL-16" style="edgeStyle=orthogonalEdgeStyle;rounded=0;orthogonalLoop=1;jettySize=auto;html=1;strokeWidth=2;entryX=0;entryY=0.5;entryDx=0;entryDy=0;" edge="1" parent="1" source="92nNJz3FCfaOk2cZFQuL-17" target="92nNJz3FCfaOk2cZFQuL-32">
          <mxGeometry relative="1" as="geometry">
            <mxPoint x="260" y="1240" as="targetPoint" />
          </mxGeometry>
        </mxCell>
        <mxCell id="92nNJz3FCfaOk2cZFQuL-43" style="edgeStyle=orthogonalEdgeStyle;rounded=0;orthogonalLoop=1;jettySize=auto;html=1;entryX=0;entryY=0.5;entryDx=0;entryDy=0;fontSize=12;strokeWidth=2;" edge="1" parent="1" source="92nNJz3FCfaOk2cZFQuL-17" target="92nNJz3FCfaOk2cZFQuL-40">
          <mxGeometry relative="1" as="geometry" />
        </mxCell>
        <mxCell id="92nNJz3FCfaOk2cZFQuL-17" value="Calculate payment topic" style="rounded=1;whiteSpace=wrap;html=1;verticalAlign=top;fontSize=12;fillColor=#dae8fc;strokeColor=#6c8ebf;" vertex="1" parent="1">
          <mxGeometry x="100" y="1220" width="120" height="40" as="geometry" />
        </mxCell>
        <mxCell id="92nNJz3FCfaOk2cZFQuL-19" style="edgeStyle=orthogonalEdgeStyle;rounded=0;orthogonalLoop=1;jettySize=auto;html=1;entryX=0;entryY=0.5;entryDx=0;entryDy=0;strokeWidth=2;entryPerimeter=0;" edge="1" parent="1" source="92nNJz3FCfaOk2cZFQuL-20" target="92nNJz3FCfaOk2cZFQuL-33">
          <mxGeometry relative="1" as="geometry">
            <mxPoint x="260" y="1340" as="targetPoint" />
          </mxGeometry>
        </mxCell>
        <mxCell id="92nNJz3FCfaOk2cZFQuL-44" style="edgeStyle=orthogonalEdgeStyle;rounded=0;orthogonalLoop=1;jettySize=auto;html=1;entryX=0;entryY=0.5;entryDx=0;entryDy=0;fontSize=12;strokeWidth=2;" edge="1" parent="1" source="92nNJz3FCfaOk2cZFQuL-20" target="92nNJz3FCfaOk2cZFQuL-41">
          <mxGeometry relative="1" as="geometry" />
        </mxCell>
        <mxCell id="92nNJz3FCfaOk2cZFQuL-20" value="Submitted agreement topic" style="rounded=1;whiteSpace=wrap;html=1;verticalAlign=top;fontSize=12;fillColor=#dae8fc;strokeColor=#6c8ebf;" vertex="1" parent="1">
          <mxGeometry x="100" y="1320" width="120" height="40" as="geometry" />
        </mxCell>
        <mxCell id="92nNJz3FCfaOk2cZFQuL-47" style="edgeStyle=orthogonalEdgeStyle;rounded=0;orthogonalLoop=1;jettySize=auto;html=1;entryX=0;entryY=0.5;entryDx=0;entryDy=0;fontSize=12;strokeWidth=2;fillColor=#e1d5e7;strokeColor=#9673a6;" edge="1" parent="1" source="92nNJz3FCfaOk2cZFQuL-30" target="92nNJz3FCfaOk2cZFQuL-45">
          <mxGeometry relative="1" as="geometry" />
        </mxCell>
        <mxCell id="92nNJz3FCfaOk2cZFQuL-30" value="&lt;span style=&quot;font-size: 12px;&quot;&gt;Decoupling layer subscription&lt;/span&gt;" style="rounded=1;whiteSpace=wrap;html=1;verticalAlign=top;fillColor=#e1d5e7;strokeColor=#9673a6;fontSize=12;" vertex="1" parent="1">
          <mxGeometry x="260" y="998" width="120" height="40" as="geometry" />
        </mxCell>
        <mxCell id="92nNJz3FCfaOk2cZFQuL-48" style="edgeStyle=orthogonalEdgeStyle;rounded=0;orthogonalLoop=1;jettySize=auto;html=1;entryX=0;entryY=0.5;entryDx=0;entryDy=0;fontSize=12;strokeWidth=2;fillColor=#e1d5e7;strokeColor=#9673a6;" edge="1" parent="1" source="92nNJz3FCfaOk2cZFQuL-31" target="92nNJz3FCfaOk2cZFQuL-45">
          <mxGeometry relative="1" as="geometry" />
        </mxCell>
        <mxCell id="92nNJz3FCfaOk2cZFQuL-31" value="&lt;span style=&quot;font-size: 12px;&quot;&gt;Decoupling layer subscription&lt;/span&gt;" style="rounded=1;whiteSpace=wrap;html=1;verticalAlign=top;fillColor=#e1d5e7;strokeColor=#9673a6;fontSize=12;" vertex="1" parent="1">
          <mxGeometry x="260" y="1100" width="120" height="40" as="geometry" />
        </mxCell>
        <mxCell id="92nNJz3FCfaOk2cZFQuL-49" style="edgeStyle=orthogonalEdgeStyle;rounded=0;orthogonalLoop=1;jettySize=auto;html=1;entryX=0;entryY=0.5;entryDx=0;entryDy=0;fontSize=12;strokeWidth=2;fillColor=#e1d5e7;strokeColor=#9673a6;" edge="1" parent="1" source="92nNJz3FCfaOk2cZFQuL-32" target="92nNJz3FCfaOk2cZFQuL-45">
          <mxGeometry relative="1" as="geometry" />
        </mxCell>
        <mxCell id="92nNJz3FCfaOk2cZFQuL-32" value="&lt;span style=&quot;font-size: 12px;&quot;&gt;Decoupling layer subscription&lt;/span&gt;" style="rounded=1;whiteSpace=wrap;html=1;verticalAlign=top;fillColor=#e1d5e7;strokeColor=#9673a6;fontSize=12;" vertex="1" parent="1">
          <mxGeometry x="260" y="1200" width="120" height="40" as="geometry" />
        </mxCell>
        <mxCell id="92nNJz3FCfaOk2cZFQuL-50" style="edgeStyle=orthogonalEdgeStyle;rounded=0;orthogonalLoop=1;jettySize=auto;html=1;entryX=0;entryY=0.5;entryDx=0;entryDy=0;fontSize=12;strokeWidth=2;fillColor=#e1d5e7;strokeColor=#9673a6;" edge="1" parent="1" source="92nNJz3FCfaOk2cZFQuL-33" target="92nNJz3FCfaOk2cZFQuL-45">
          <mxGeometry relative="1" as="geometry" />
        </mxCell>
        <mxCell id="92nNJz3FCfaOk2cZFQuL-33" value="&lt;span style=&quot;font-size: 12px;&quot;&gt;Decoupling layer subscription&lt;/span&gt;" style="rounded=1;whiteSpace=wrap;html=1;verticalAlign=top;fillColor=#e1d5e7;strokeColor=#9673a6;fontSize=12;" vertex="1" parent="1">
          <mxGeometry x="260" y="1300" width="120" height="40" as="geometry" />
        </mxCell>
        <mxCell id="92nNJz3FCfaOk2cZFQuL-53" style="edgeStyle=orthogonalEdgeStyle;rounded=0;orthogonalLoop=1;jettySize=auto;html=1;entryX=0;entryY=0.5;entryDx=0;entryDy=0;fontSize=12;strokeWidth=2;fillColor=#d5e8d4;strokeColor=#82b366;" edge="1" parent="1" source="92nNJz3FCfaOk2cZFQuL-34" target="92nNJz3FCfaOk2cZFQuL-51">
          <mxGeometry relative="1" as="geometry">
            <Array as="points">
              <mxPoint x="510" y="966" />
              <mxPoint x="510" y="1430" />
            </Array>
          </mxGeometry>
        </mxCell>
        <mxCell id="92nNJz3FCfaOk2cZFQuL-34" value="&lt;span style=&quot;font-size: 12px&quot;&gt;Agreement calculator subscription&lt;/span&gt;" style="rounded=1;whiteSpace=wrap;html=1;verticalAlign=top;fillColor=#d5e8d4;strokeColor=#82b366;fontSize=12;" vertex="1" parent="1">
          <mxGeometry x="260" y="946" width="120" height="40" as="geometry" />
        </mxCell>
        <mxCell id="92nNJz3FCfaOk2cZFQuL-54" style="edgeStyle=orthogonalEdgeStyle;rounded=0;orthogonalLoop=1;jettySize=auto;html=1;entryX=0;entryY=0.5;entryDx=0;entryDy=0;fontSize=12;strokeWidth=2;fillColor=#d5e8d4;strokeColor=#82b366;" edge="1" parent="1" source="92nNJz3FCfaOk2cZFQuL-37" target="92nNJz3FCfaOk2cZFQuL-51">
          <mxGeometry relative="1" as="geometry">
            <Array as="points">
              <mxPoint x="510" y="1070" />
              <mxPoint x="510" y="1430" />
            </Array>
          </mxGeometry>
        </mxCell>
        <mxCell id="92nNJz3FCfaOk2cZFQuL-37" value="&lt;span style=&quot;font-size: 12px&quot;&gt;Agreement calculator subscription&lt;/span&gt;" style="rounded=1;whiteSpace=wrap;html=1;verticalAlign=top;fillColor=#d5e8d4;strokeColor=#82b366;fontSize=12;" vertex="1" parent="1">
          <mxGeometry x="260" y="1050" width="120" height="40" as="geometry" />
        </mxCell>
        <mxCell id="92nNJz3FCfaOk2cZFQuL-55" style="edgeStyle=orthogonalEdgeStyle;rounded=0;orthogonalLoop=1;jettySize=auto;html=1;entryX=0;entryY=0.5;entryDx=0;entryDy=0;fontSize=12;strokeWidth=2;fillColor=#d5e8d4;strokeColor=#82b366;" edge="1" parent="1" source="92nNJz3FCfaOk2cZFQuL-39" target="92nNJz3FCfaOk2cZFQuL-51">
          <mxGeometry relative="1" as="geometry">
            <Array as="points">
              <mxPoint x="510" y="1170" />
              <mxPoint x="510" y="1430" />
            </Array>
          </mxGeometry>
        </mxCell>
        <mxCell id="92nNJz3FCfaOk2cZFQuL-39" value="&lt;span style=&quot;font-size: 12px&quot;&gt;Agreement calculator subscription&lt;/span&gt;" style="rounded=1;whiteSpace=wrap;html=1;verticalAlign=top;fillColor=#d5e8d4;strokeColor=#82b366;fontSize=12;" vertex="1" parent="1">
          <mxGeometry x="260" y="1150" width="120" height="40" as="geometry" />
        </mxCell>
        <mxCell id="92nNJz3FCfaOk2cZFQuL-56" style="edgeStyle=orthogonalEdgeStyle;rounded=0;orthogonalLoop=1;jettySize=auto;html=1;entryX=0;entryY=0.5;entryDx=0;entryDy=0;fontSize=12;strokeWidth=2;fillColor=#d5e8d4;strokeColor=#82b366;" edge="1" parent="1" source="92nNJz3FCfaOk2cZFQuL-40" target="92nNJz3FCfaOk2cZFQuL-51">
          <mxGeometry relative="1" as="geometry">
            <Array as="points">
              <mxPoint x="510" y="1270" />
              <mxPoint x="510" y="1430" />
            </Array>
          </mxGeometry>
        </mxCell>
        <mxCell id="92nNJz3FCfaOk2cZFQuL-40" value="&lt;span style=&quot;font-size: 12px&quot;&gt;Agreement calculator subscription&lt;/span&gt;" style="rounded=1;whiteSpace=wrap;html=1;verticalAlign=top;fillColor=#d5e8d4;strokeColor=#82b366;fontSize=12;" vertex="1" parent="1">
          <mxGeometry x="260" y="1250" width="120" height="40" as="geometry" />
        </mxCell>
        <mxCell id="92nNJz3FCfaOk2cZFQuL-57" style="edgeStyle=orthogonalEdgeStyle;rounded=0;orthogonalLoop=1;jettySize=auto;html=1;entryX=0;entryY=0.5;entryDx=0;entryDy=0;fontSize=12;strokeWidth=2;fillColor=#d5e8d4;strokeColor=#82b366;" edge="1" parent="1" source="92nNJz3FCfaOk2cZFQuL-41" target="92nNJz3FCfaOk2cZFQuL-51">
          <mxGeometry relative="1" as="geometry">
            <Array as="points">
              <mxPoint x="510" y="1370" />
              <mxPoint x="510" y="1430" />
            </Array>
          </mxGeometry>
        </mxCell>
        <mxCell id="92nNJz3FCfaOk2cZFQuL-41" value="&lt;span style=&quot;font-size: 12px&quot;&gt;Agreement calculator subscription&lt;/span&gt;" style="rounded=1;whiteSpace=wrap;html=1;verticalAlign=top;fillColor=#d5e8d4;strokeColor=#82b366;fontSize=12;" vertex="1" parent="1">
          <mxGeometry x="260" y="1350" width="120" height="40" as="geometry" />
        </mxCell>
        <mxCell id="92nNJz3FCfaOk2cZFQuL-61" value="" style="edgeStyle=orthogonalEdgeStyle;rounded=0;orthogonalLoop=1;jettySize=auto;html=1;fontSize=12;strokeWidth=2;fillColor=#f8cecc;strokeColor=#b85450;" edge="1" parent="1" source="92nNJz3FCfaOk2cZFQuL-45" target="92nNJz3FCfaOk2cZFQuL-60">
          <mxGeometry relative="1" as="geometry" />
        </mxCell>
        <mxCell id="92nNJz3FCfaOk2cZFQuL-62" style="edgeStyle=orthogonalEdgeStyle;rounded=0;orthogonalLoop=1;jettySize=auto;html=1;entryX=0.5;entryY=0;entryDx=0;entryDy=0;fontSize=12;strokeWidth=2;exitX=0.5;exitY=0;exitDx=0;exitDy=0;dashed=1;" edge="1" parent="1" source="92nNJz3FCfaOk2cZFQuL-45" target="92nNJz3FCfaOk2cZFQuL-1">
          <mxGeometry relative="1" as="geometry" />
        </mxCell>
        <mxCell id="92nNJz3FCfaOk2cZFQuL-45" value="Decoupling layer" style="rounded=1;whiteSpace=wrap;html=1;fontSize=12;fillColor=#e1d5e7;strokeColor=#9673a6;" vertex="1" parent="1">
          <mxGeometry x="570" y="830" width="120" height="60" as="geometry" />
        </mxCell>
        <mxCell id="92nNJz3FCfaOk2cZFQuL-63" style="edgeStyle=orthogonalEdgeStyle;rounded=0;orthogonalLoop=1;jettySize=auto;html=1;entryX=0.5;entryY=1;entryDx=0;entryDy=0;dashed=1;fontSize=12;strokeWidth=2;exitX=0.5;exitY=1;exitDx=0;exitDy=0;" edge="1" parent="1" source="92nNJz3FCfaOk2cZFQuL-51" target="92nNJz3FCfaOk2cZFQuL-1">
          <mxGeometry relative="1" as="geometry" />
        </mxCell>
        <mxCell id="92nNJz3FCfaOk2cZFQuL-51" value="Agreement calculator" style="rounded=1;whiteSpace=wrap;html=1;fontSize=12;fillColor=#d5e8d4;strokeColor=#82b366;" vertex="1" parent="1">
          <mxGeometry x="560" y="1400" width="120" height="60" as="geometry" />
        </mxCell>
        <mxCell id="92nNJz3FCfaOk2cZFQuL-60" value="Siti agri" style="rounded=1;whiteSpace=wrap;html=1;fontSize=12;fillColor=#f8cecc;strokeColor=#b85450;" vertex="1" parent="1">
          <mxGeometry x="770" y="830" width="120" height="60" as="geometry" />
        </mxCell>
      </root>
    </mxGraphModel>
  </diagram>
</mxfile>
